<mxfile host="app.diagrams.net" modified="2022-01-11T19:14:32.248Z" agent="5.0 (Linux; Android 11; G700) AppleWebKit/537.36 (KHTML, like Gecko) Chrome/97.0.4692.70 Mobile Safari/537.36" etag="ofYI9OP8hu8HSvCZmrZC" version="16.2.4" type="github">
  <diagram id="Iz3rIgmGni9zU92Qh3Qu" name="Page-1">
    <mxGraphModel dx="593" dy="1325" grid="0" gridSize="10" guides="1" tooltips="1" connect="1" arrows="1" fold="1" page="0" pageScale="1" pageWidth="827" pageHeight="1169" math="0" shadow="0">
      <root>
        <mxCell id="0" />
        <mxCell id="1" parent="0" />
        <mxCell id="19Fi7R_Q-CgO90kHO7dv-7" style="edgeStyle=none;curved=1;rounded=0;sketch=1;hachureGap=4;orthogonalLoop=1;jettySize=auto;html=1;fontFamily=Architects Daughter;fontSource=https%3A%2F%2Ffonts.googleapis.com%2Fcss%3Ffamily%3DArchitects%2BDaughter;fontSize=16;endArrow=open;startSize=14;endSize=14;sourcePerimeterSpacing=8;targetPerimeterSpacing=8;" edge="1" parent="1" source="19Fi7R_Q-CgO90kHO7dv-1" target="19Fi7R_Q-CgO90kHO7dv-4">
          <mxGeometry relative="1" as="geometry" />
        </mxCell>
        <mxCell id="19Fi7R_Q-CgO90kHO7dv-1" value="Oku Sayi1=1 Sayi2=2" style="rounded=0;whiteSpace=wrap;html=1;sketch=1;hachureGap=4;fontFamily=Architects Daughter;fontSource=https%3A%2F%2Ffonts.googleapis.com%2Fcss%3Ffamily%3DArchitects%2BDaughter;fontSize=20;" vertex="1" parent="1">
          <mxGeometry x="179" y="242" width="160" height="49" as="geometry" />
        </mxCell>
        <mxCell id="19Fi7R_Q-CgO90kHO7dv-3" style="edgeStyle=none;curved=1;rounded=0;sketch=1;hachureGap=4;orthogonalLoop=1;jettySize=auto;html=1;fontFamily=Architects Daughter;fontSource=https%3A%2F%2Ffonts.googleapis.com%2Fcss%3Ffamily%3DArchitects%2BDaughter;fontSize=16;endArrow=open;startSize=14;endSize=14;sourcePerimeterSpacing=8;targetPerimeterSpacing=8;" edge="1" parent="1" source="19Fi7R_Q-CgO90kHO7dv-2" target="19Fi7R_Q-CgO90kHO7dv-1">
          <mxGeometry relative="1" as="geometry" />
        </mxCell>
        <mxCell id="19Fi7R_Q-CgO90kHO7dv-2" value="BaÅŸla" style="ellipse;whiteSpace=wrap;html=1;sketch=1;hachureGap=4;fontFamily=Architects Daughter;fontSource=https%3A%2F%2Ffonts.googleapis.com%2Fcss%3Ffamily%3DArchitects%2BDaughter;fontSize=20;" vertex="1" parent="1">
          <mxGeometry x="179" y="49" width="160" height="100" as="geometry" />
        </mxCell>
        <mxCell id="19Fi7R_Q-CgO90kHO7dv-4" value="" style="rhombus;whiteSpace=wrap;html=1;sketch=1;hachureGap=4;fontFamily=Architects Daughter;fontSource=https%3A%2F%2Ffonts.googleapis.com%2Fcss%3Ffamily%3DArchitects%2BDaughter;fontSize=20;" vertex="1" parent="1">
          <mxGeometry x="219" y="480" width="80" height="80" as="geometry" />
        </mxCell>
        <mxCell id="19Fi7R_Q-CgO90kHO7dv-5" value="" style="rhombus;whiteSpace=wrap;html=1;sketch=1;hachureGap=4;fontFamily=Architects Daughter;fontSource=https%3A%2F%2Ffonts.googleapis.com%2Fcss%3Ffamily%3DArchitects%2BDaughter;fontSize=20;" vertex="1" parent="1">
          <mxGeometry x="525" y="430" width="80" height="80" as="geometry" />
        </mxCell>
        <mxCell id="19Fi7R_Q-CgO90kHO7dv-6" value="" style="shape=document;whiteSpace=wrap;html=1;boundedLbl=1;sketch=1;hachureGap=4;fontFamily=Architects Daughter;fontSource=https%3A%2F%2Ffonts.googleapis.com%2Fcss%3Ffamily%3DArchitects%2BDaughter;fontSize=20;" vertex="1" parent="1">
          <mxGeometry x="546" y="615" width="120" height="80" as="geometry" />
        </mxCell>
      </root>
    </mxGraphModel>
  </diagram>
</mxfile>
